<?xml version="1.0" encoding="UTF-8" standalone="no"?>
<svg
   xmlns:dc="http://purl.org/dc/elements/1.1/"
   xmlns:cc="http://creativecommons.org/ns#"
   xmlns:rdf="http://www.w3.org/1999/02/22-rdf-syntax-ns#"
   xmlns:svg="http://www.w3.org/2000/svg"
   xmlns="http://www.w3.org/2000/svg"
   id="svg12"
   xml:space="preserve"
   viewBox="0 0 167 40"
   height="40"
   width="167"
   version="1.1"><metadata
     id="metadata16"><rdf:RDF><cc:Work
         rdf:about=""><dc:format>image/svg+xml</dc:format><dc:type
           rdf:resource="http://purl.org/dc/dcmitype/StillImage" /></cc:Work></rdf:RDF></metadata><desc
     id="desc2">Created with Fabric.js 2.4.6</desc><defs
     id="defs4" /><g
     id="g10"
     transform="translate(84.5,19.37)"><g
       id="text8"
       style="font-size:40px;font-family:Lato;white-space:pre;opacity:1;fill:#ffffff;fill-rule:nonzero;stroke:none;stroke-width:1;stroke-linecap:butt;stroke-linejoin:miter;stroke-miterlimit:4;stroke-dasharray:none;stroke-dashoffset:0"
       aria-label="AKTalpur"><path
         id="path18"
         style=""
         d="m -63.12,1.9299997 -4.5,-11.66 Q -67.82,-10.25 -68.04,-10.93 q -0.22,-0.7 -0.42,-1.48 -0.42,1.62 -0.86,2.6999997 l -4.5,11.64 z M -55.04,12.57 h -3 q -0.52,0 -0.84,-0.26 -0.32,-0.26 -0.48,-0.66 L -62.04,4.7299997 H -74.9 L -77.58,11.65 q -0.12,0.36 -0.46,0.64 -0.34,0.28 -0.84,0.28 h -3 l 11.46,-28.66 h 3.92 z" /><path
         id="path20"
         style=""
         d="m -47.370625,-3.5300003 h 1.46 q 0.76,0 1.22,-0.18 0.46,-0.2 0.84,-0.66 l 9.54,-10.7999997 q 0.4,-0.52 0.84,-0.72 0.44,-0.2 1.08,-0.2 h 3.28 l -10.92,12.3399997 q -0.4,0.48 -0.78,0.8 -0.36,0.3 -0.78,0.5 0.54,0.18 0.98,0.54 0.44,0.34 0.86,0.9 l 11.4,13.5800003 h -3.36 q -0.38,0 -0.66,-0.04 -0.26,-0.06 -0.46,-0.16 -0.2,-0.12 -0.36,-0.26 -0.14,-0.16 -0.28,-0.36 l -9.88,-11.38000031 q -0.4,-0.5 -0.86,-0.7 -0.46,-0.22 -1.4,-0.22 h -1.76 V 12.57 h -3.86 v -28.66 h 3.86 z" /><path
         id="path22"
         style=""
         d="m -5.36625,-12.83 h -9.28 v 25.4 h -3.86 v -25.4 h -9.3 v -3.26 h 22.44 z" /><path
         id="path24"
         style=""
         d="m 4.45625,3.4499997 q -2.46,0.08 -4.2,0.4 -1.72,0.3 -2.82,0.8 -1.08,0.5 -1.58,1.18 -0.48,0.68 -0.48,1.52 0,0.8 0.26,1.38 0.26,0.58 0.7,0.96 0.46,0.3600003 1.06,0.5400003 0.62,0.16 1.32,0.16 0.94,0 1.72,-0.18 0.78,-0.2 1.46,-0.5600003 0.7,-0.36 1.32,-0.86 0.64,-0.5 1.24,-1.14 z m -11.5,-8.28 q 1.68,-1.62 3.62,-2.42 1.94,-0.8 4.3,-0.8 1.7,0 3.02,0.56 1.32,0.56 2.22,1.56 0.9,1 1.36,2.42 0.46,1.42 0.46,3.11999999 V 12.57 h -1.58 q -0.52,0 -0.8,-0.16 -0.28,-0.18 -0.44,-0.68 l -0.4,-1.9200003 Q 3.91625,10.55 3.15625,11.13 q -0.76,0.56 -1.6,0.96 -0.84,0.38 -1.8,0.58 -0.94,0.22 -2.1,0.22 -1.18,0 -2.22,-0.32 -1.04,-0.34 -1.82,-1 -0.76,-0.66 -1.22,-1.6600003 -0.44,-1.02 -0.44,-2.4 0,-1.2 0.66,-2.3 0.66,-1.12 2.14,-1.98 1.48,-0.86 3.86,-1.4 2.38,-0.56 5.84,-0.64 v -1.58000001 q 0,-2.35999999 -1.02,-3.55999999 -1.02,-1.22 -2.98,-1.22 -1.32,0 -2.22,0.34 -0.88,0.32 -1.54,0.74 -0.64,0.4 -1.12,0.74 -0.46,0.32 -0.92,0.32 -0.36,0 -0.62,-0.18 -0.26,-0.2 -0.44,-0.48 z" /><path
         id="path26"
         style=""
         d="M 17,-16.89 V 12.57 H 13.44 V -16.89 Z" /><path
         id="path28"
         style=""
         d="m 26.353125,7.6899997 q 0.98,1.32 2.14,1.86 1.16,0.5400003 2.6,0.5400003 2.84,0 4.36,-2.0200003 1.52,-2.02 1.52,-5.76 0,-1.98000001 -0.36,-3.4 -0.34,-1.42 -1,-2.32 -0.66,-0.92 -1.62,-1.34 -0.96,-0.42 -2.18,-0.42 -1.74,0 -3.06,0.8 -1.3,0.8 -2.4,2.26 z m -0.18,-12.24 q 1.28,-1.58 2.96,-2.54 1.68,-0.96 3.84,-0.96 1.76,0 3.18,0.68 1.42,0.66 2.42,1.98 1,1.3 1.54,3.24 0.54,1.93999999 0.54,4.46 0,2.24 -0.6,4.18 -0.6,1.92 -1.74,3.34 -1.12,1.4000003 -2.76,2.2200003 -1.62,0.8 -3.66,0.8 -1.86,0 -3.2,-0.62 -1.32,-0.64 -2.34,-1.76 v 8.96 h -3.58 V -7.6900003 h 2.14 q 0.76,0 0.94,0.74 z" /><path
         id="path30"
         style=""
         d="M 61.855,-7.6900003 V 12.57 h -2.12 q -0.76,0 -0.96,-0.74 L 58.495,9.6499997 Q 57.175,11.11 55.535,12.01 q -1.64,0.88 -3.76,0.88 -1.66,0 -2.94,-0.54 -1.26,-0.56 -2.12,-1.56 -0.86,-1.0000003 -1.3,-2.4200003 -0.42,-1.42 -0.42,-3.14 v -12.92 h 3.56 v 12.92 q 0,2.3 1.04,3.56 1.06,1.2600003 3.22,1.2600003 1.58,0 2.94,-0.7400003 1.38,-0.76 2.54,-2.08 v -14.92 z" /><path
         id="path32"
         style=""
         d="m 70.840625,-3.6300003 q 0.96,-2.08 2.36,-3.24 1.4,-1.18 3.42,-1.18 0.64,0 1.22,0.14 0.6,0.14 1.06,0.44 l -0.26,2.66 q -0.12,0.5 -0.6,0.5 -0.28,0 -0.82,-0.12 -0.54,-0.12 -1.22,-0.12 -0.96,0 -1.72,0.28 -0.74,0.28 -1.34,0.84 -0.58,0.54 -1.06,1.36 -0.46,0.8 -0.84,1.83999999 V 12.57 h -3.58 V -7.6900003 h 2.04 q 0.58,0 0.8,0.22 0.22,0.22 0.3,0.76 z" /></g></g></svg>